<svg id="Layer_1" data-name="Layer 1" xmlns="http://www.w3.org/2000/svg" viewBox="0 0 241.51 241.52"><path id="Twitter_social_icons_-_rounded_square_-_white" data-name="Twitter social icons - rounded square - white" d="M224,254.15H42.83A30.19,30.19,0,0,1,12.64,224V42.83A30.19,30.19,0,0,1,42.83,12.64H224a30.2,30.2,0,0,1,30.19,30.19V224A30.2,30.2,0,0,1,224,254.15ZM105.38,194.73a87.48,87.48,0,0,0,88.09-86.89v-1.2c0-1.32,0-2.65-.06-4A63.12,63.12,0,0,0,208.87,86.6a63.06,63.06,0,0,1-17.82,4.89A31.16,31.16,0,0,0,204.7,74.34,61.54,61.54,0,0,1,185,81.83,31,31,0,0,0,131.46,103a34.23,34.23,0,0,0,.77,7.06,87.9,87.9,0,0,1-63.8-32.35A31.07,31.07,0,0,0,78,119.08a31.26,31.26,0,0,1-14-3.83v.42A31,31,0,0,0,88.83,146a31.11,31.11,0,0,1-13.94.54,31,31,0,0,0,28.92,21.49,62.16,62.16,0,0,1-38.46,13.29,58.65,58.65,0,0,1-7.37-.43,88.07,88.07,0,0,0,47.4,13.82" transform="translate(-12.64 -12.64)"/></svg>