<svg id="Layer_1" data-name="Layer 1" xmlns="http://www.w3.org/2000/svg" xmlns:xlink="http://www.w3.org/1999/xlink" viewBox="0 0 266.79 266.79"><defs><style>.cls-1{fill:none;}.cls-2{clip-path:url(#clip-path);}</style><clipPath id="clip-path"><rect class="cls-1" x="8.24" y="38.76" width="250.31" height="189.26"/></clipPath></defs><g class="cls-2"><g id="Discord-Logo-White"><path id="Path_1" data-name="Path 1" d="M218.19,55.87A204.36,204.36,0,0,0,167.7,40.22a.77.77,0,0,0-.81.38q-3.46,6.3-6.29,12.91a189,189,0,0,0-56.69,0A131.09,131.09,0,0,0,97.53,40.6a.8.8,0,0,0-.82-.38A203.37,203.37,0,0,0,46.24,55.87a.67.67,0,0,0-.33.29A209.34,209.34,0,0,0,9.27,197.32a.87.87,0,0,0,.33.61,205.69,205.69,0,0,0,61.91,31.28.79.79,0,0,0,.87-.29,146.56,146.56,0,0,0,12.67-20.6.78.78,0,0,0-.35-1.06l-.07,0A135,135,0,0,1,65.28,198a.8.8,0,0,1-.29-1.09.66.66,0,0,1,.21-.23c1.3-1,2.6-2,3.84-3a.75.75,0,0,1,.8-.11,146.68,146.68,0,0,0,124.64,0,.77.77,0,0,1,.81.09c1.22,1,2.54,2.05,3.85,3a.79.79,0,0,1,.16,1.11.93.93,0,0,1-.23.21,127,127,0,0,1-19.35,9.21.79.79,0,0,0-.46,1l0,.08A164.66,164.66,0,0,0,192,228.92a.76.76,0,0,0,.87.29,204.61,204.61,0,0,0,62.06-31.31.79.79,0,0,0,.32-.57,207.92,207.92,0,0,0-36.7-141.16A.59.59,0,0,0,218.19,55.87ZM91.12,169.15a23.83,23.83,0,0,1-22.3-25,23.71,23.71,0,0,1,22.3-25A23.58,23.58,0,0,1,113.42,144a1.27,1.27,0,0,0,0,.2A23.71,23.71,0,0,1,91.12,169.15Zm82.42,0a23.81,23.81,0,0,1-22.29-25,23.69,23.69,0,0,1,22.29-25A23.58,23.58,0,0,1,195.84,144a1.27,1.27,0,0,0,0,.2,23.65,23.65,0,0,1-22.22,25h-.07Z"/></g></g></svg>