<svg id="Layer_1" data-name="Layer 1" xmlns="http://www.w3.org/2000/svg" viewBox="0 0 323.17 85.6"><path d="M36.31,4.68C55.12,4.68,66,14.8,66,32.07c0,15.07-10.56,25.74-28.93,25.74H25.2V81.68H2.54v-77ZM32.35,42c6.38,0,10.45-3.19,10.45-10,0-6.6-4.18-9.13-9.68-9.13H25.2V42Z"/><path d="M68.21,81.68V2.48H90.32v79.2Z"/><path d="M93.51,54.07c0-18.92,14.08-30,31.79-30s32,11.11,32,30c0,18.37-14.63,29.26-32,29.26S93.51,72.44,93.51,54.07Zm41.14-.22c0-7-3.52-11.55-9.35-11.55s-9.24,4.51-9.24,11.55,3.63,11.22,9.24,11.22S134.65,60.78,134.65,53.85Z"/><path d="M195.7,25.69h23.54L197,81.68H174.58l-22.11-56H176l9.68,29.81Z"/><path d="M273.47,59.46h-36.3c2.31,4.51,7.92,7.48,17.38,7.48a31.9,31.9,0,0,0,16.39-4.29V77.28c-4.29,3.19-11.88,6-22.44,6-21,0-34-11.55-34-29.92,0-17.49,12.21-29.37,30.91-29.37,18.26,0,28.05,9.9,28.05,28.27ZM236.84,48.24h18.37c-.33-5.5-3.52-8.36-8.91-8.36S237.39,43,236.84,48.24Z"/><path d="M320.43,26.68V46.81a17.6,17.6,0,0,0-8.91-2.09c-8.13,0-12.42,4.84-12.42,14.3V81.68H277v-56H299.1V37.57c2.53-9.68,7.7-12.87,14.29-12.87A12.75,12.75,0,0,1,320.43,26.68Z"/></svg>